<svg width="32" height="32" viewBox="0 0 32 32" fill="none" xmlns="http://www.w3.org/2000/svg">
  <g opacity="0.8">
    <path d="M8 6L24 6C26.2091 6 28 7.79086 28 10L28 22C28 24.2091 26.2091 26 24 26L8 26C5.79086 26 4 24.2091 4 22L4 10C4 7.79086 5.79086 6 8 6Z" fill="#9BB5E8"/>
    <path d="M8 4L20 4C22.2091 4 24 5.79086 24 8L24 20C24 22.2091 22.2091 24 20 24L8 24C5.79086 24 4 22.2091 4 20L4 8C4 5.79086 5.79086 4 8 4Z" fill="#B8CBEB"/>
    <path d="M8 2L16 2C18.2091 2 20 3.79086 20 6L20 18C20 20.2091 18.2091 22 16 22L8 22C5.79086 22 4 20.2091 4 18L4 6C4 3.79086 5.79086 2 8 2Z" fill="#D4E2F0"/>
  </g>
</svg>
